<mxfile host="app.diagrams.net" modified="2023-06-25T11:52:32.540Z" agent="Mozilla/5.0 (Macintosh; Intel Mac OS X 10_15_7) AppleWebKit/537.36 (KHTML, like Gecko) Chrome/114.0.0.0 Safari/537.36" etag="2A9FyDithj1hS-YLwmSB" version="21.5.0" type="github">
  <diagram id="yPxyJZ8AM_hMuL3Unpa9" name="simple gitflow">
    <mxGraphModel dx="2534" dy="796" grid="1" gridSize="10" guides="1" tooltips="1" connect="1" arrows="1" fold="1" page="1" pageScale="1" pageWidth="1100" pageHeight="850" math="0" shadow="0">
      <root>
        <mxCell id="0" />
        <mxCell id="1" parent="0" />
        <mxCell id="9hBKPDzoitwpIBdzFDQ7-23" value="" style="edgeStyle=orthogonalEdgeStyle;rounded=0;html=1;jettySize=auto;orthogonalLoop=1;plain-blue;endArrow=none;endFill=0;strokeWidth=4;strokeColor=#000000;entryX=0;entryY=0.5;entryDx=0;entryDy=0;entryPerimeter=0;" parent="1" source="9hBKPDzoitwpIBdzFDQ7-25" target="gSucQQH5cgbJFUozR1KS-43" edge="1">
          <mxGeometry x="304.5" y="180" as="geometry">
            <mxPoint x="380" y="180" as="targetPoint" />
          </mxGeometry>
        </mxCell>
        <mxCell id="gSucQQH5cgbJFUozR1KS-48" value="200ms" style="edgeLabel;html=1;align=center;verticalAlign=middle;resizable=0;points=[];" vertex="1" connectable="0" parent="9hBKPDzoitwpIBdzFDQ7-23">
          <mxGeometry relative="1" as="geometry">
            <mxPoint x="-6" as="offset" />
          </mxGeometry>
        </mxCell>
        <mxCell id="9hBKPDzoitwpIBdzFDQ7-25" value="" style="verticalLabelPosition=bottom;verticalAlign=top;html=1;strokeWidth=4;shape=mxgraph.flowchart.on-page_reference;plain-blue;gradientColor=none;fillColor=#B5E3Fe;strokeColor=#000000;" parent="1" vertex="1">
          <mxGeometry x="274.5" y="165" width="30" height="30" as="geometry" />
        </mxCell>
        <mxCell id="9hBKPDzoitwpIBdzFDQ7-27" value="" style="edgeStyle=orthogonalEdgeStyle;rounded=0;html=1;jettySize=auto;orthogonalLoop=1;strokeWidth=4;endArrow=none;endFill=0;" parent="1" target="9hBKPDzoitwpIBdzFDQ7-25" edge="1">
          <mxGeometry x="204.5" y="180" as="geometry">
            <mxPoint x="160" y="180" as="sourcePoint" />
          </mxGeometry>
        </mxCell>
        <mxCell id="gSucQQH5cgbJFUozR1KS-14" value="300ms" style="edgeLabel;html=1;align=center;verticalAlign=middle;resizable=0;points=[];" vertex="1" connectable="0" parent="9hBKPDzoitwpIBdzFDQ7-27">
          <mxGeometry relative="1" as="geometry">
            <mxPoint x="3" y="-1" as="offset" />
          </mxGeometry>
        </mxCell>
        <mxCell id="9hBKPDzoitwpIBdzFDQ7-28" value="开始访问" style="text;html=1;strokeColor=none;fillColor=none;align=center;verticalAlign=middle;whiteSpace=wrap;overflow=hidden;fontSize=14;fontStyle=1;fontFamily=Courier New;" parent="1" vertex="1">
          <mxGeometry x="-140" y="170" width="70" height="20" as="geometry" />
        </mxCell>
        <mxCell id="9hBKPDzoitwpIBdzFDQ7-29" style="edgeStyle=orthogonalEdgeStyle;curved=1;rounded=0;html=1;exitX=1;exitY=0.5;exitPerimeter=0;entryX=0;entryY=0.5;entryPerimeter=0;endArrow=none;endFill=0;jettySize=auto;orthogonalLoop=1;strokeWidth=4;fontSize=15;" parent="1" source="9hBKPDzoitwpIBdzFDQ7-30" target="9hBKPDzoitwpIBdzFDQ7-32" edge="1">
          <mxGeometry relative="1" as="geometry" />
        </mxCell>
        <mxCell id="9hBKPDzoitwpIBdzFDQ7-30" value="串行请求1" style="verticalLabelPosition=bottom;verticalAlign=top;html=1;strokeWidth=4;shape=mxgraph.flowchart.on-page_reference;plain-purple;gradientColor=none;strokeColor=#000000;" parent="1" vertex="1">
          <mxGeometry x="530" y="220" width="30" height="30" as="geometry" />
        </mxCell>
        <mxCell id="9hBKPDzoitwpIBdzFDQ7-31" style="edgeStyle=orthogonalEdgeStyle;curved=1;rounded=0;html=1;exitX=1;exitY=0.5;exitPerimeter=0;entryX=0;entryY=0.5;entryPerimeter=0;endArrow=none;endFill=0;jettySize=auto;orthogonalLoop=1;strokeWidth=4;fontSize=15;" parent="1" source="9hBKPDzoitwpIBdzFDQ7-32" target="9hBKPDzoitwpIBdzFDQ7-34" edge="1">
          <mxGeometry relative="1" as="geometry" />
        </mxCell>
        <mxCell id="9hBKPDzoitwpIBdzFDQ7-32" value="串行请求2" style="verticalLabelPosition=bottom;verticalAlign=top;html=1;strokeWidth=4;shape=mxgraph.flowchart.on-page_reference;plain-purple;gradientColor=none;strokeColor=#000000;" parent="1" vertex="1">
          <mxGeometry x="602" y="220" width="30" height="30" as="geometry" />
        </mxCell>
        <mxCell id="9hBKPDzoitwpIBdzFDQ7-34" value="串行请求3" style="verticalLabelPosition=bottom;verticalAlign=top;html=1;strokeWidth=4;shape=mxgraph.flowchart.on-page_reference;plain-purple;gradientColor=none;strokeColor=#000000;" parent="1" vertex="1">
          <mxGeometry x="675" y="220" width="30" height="30" as="geometry" />
        </mxCell>
        <mxCell id="9hBKPDzoitwpIBdzFDQ7-39" value="Tag: 1.0.0" style="text;html=1;strokeColor=none;fillColor=none;align=center;verticalAlign=middle;whiteSpace=wrap;overflow=hidden;fontSize=14;" parent="1" vertex="1">
          <mxGeometry x="258.38" y="140" width="70" height="20" as="geometry" />
        </mxCell>
        <mxCell id="gSucQQH5cgbJFUozR1KS-2" value="" style="verticalLabelPosition=bottom;verticalAlign=top;html=1;strokeWidth=4;shape=mxgraph.flowchart.on-page_reference;plain-blue;gradientColor=none;fillColor=#B5E3Fe;strokeColor=#000000;" vertex="1" parent="1">
          <mxGeometry x="130" y="165" width="30" height="30" as="geometry" />
        </mxCell>
        <mxCell id="gSucQQH5cgbJFUozR1KS-4" value="" style="edgeStyle=orthogonalEdgeStyle;rounded=0;html=1;jettySize=auto;orthogonalLoop=1;plain-blue;endArrow=none;endFill=0;strokeWidth=4;strokeColor=#000000;" edge="1" parent="1">
          <mxGeometry x="304.5" y="180" as="geometry">
            <mxPoint x="-60" y="180" as="sourcePoint" />
            <mxPoint x="130" y="179.5" as="targetPoint" />
          </mxGeometry>
        </mxCell>
        <mxCell id="gSucQQH5cgbJFUozR1KS-42" value="200ms" style="edgeLabel;html=1;align=center;verticalAlign=middle;resizable=0;points=[];" vertex="1" connectable="0" parent="gSucQQH5cgbJFUozR1KS-4">
          <mxGeometry relative="1" as="geometry">
            <mxPoint x="10" y="-1" as="offset" />
          </mxGeometry>
        </mxCell>
        <mxCell id="gSucQQH5cgbJFUozR1KS-15" value="basicInfo请求" style="verticalLabelPosition=bottom;verticalAlign=top;html=1;strokeWidth=4;shape=mxgraph.flowchart.on-page_reference;plain-purple;gradientColor=none;strokeColor=#000000;" vertex="1" parent="1">
          <mxGeometry x="200" y="230" width="30" height="30" as="geometry" />
        </mxCell>
        <mxCell id="gSucQQH5cgbJFUozR1KS-20" style="edgeStyle=orthogonalEdgeStyle;curved=1;rounded=0;html=1;exitX=0.5;exitY=1;exitPerimeter=0;entryX=0;entryY=0.5;entryPerimeter=0;endArrow=none;endFill=0;jettySize=auto;orthogonalLoop=1;strokeWidth=4;fontSize=15;exitDx=0;exitDy=0;entryDx=0;entryDy=0;" edge="1" parent="1" source="gSucQQH5cgbJFUozR1KS-2" target="gSucQQH5cgbJFUozR1KS-15">
          <mxGeometry relative="1" as="geometry">
            <mxPoint x="116.5" y="275" as="sourcePoint" />
            <mxPoint x="159.5" y="355" as="targetPoint" />
          </mxGeometry>
        </mxCell>
        <mxCell id="gSucQQH5cgbJFUozR1KS-21" style="edgeStyle=orthogonalEdgeStyle;curved=1;rounded=0;html=1;entryX=0.5;entryY=1;entryPerimeter=0;endArrow=none;endFill=0;jettySize=auto;orthogonalLoop=1;strokeWidth=4;fontSize=15;entryDx=0;entryDy=0;" edge="1" parent="1" target="9hBKPDzoitwpIBdzFDQ7-25">
          <mxGeometry relative="1" as="geometry">
            <mxPoint x="230" y="246" as="sourcePoint" />
            <mxPoint x="265" y="295" as="targetPoint" />
          </mxGeometry>
        </mxCell>
        <mxCell id="gSucQQH5cgbJFUozR1KS-25" value="加载主应用JS&lt;br&gt;资源" style="verticalLabelPosition=bottom;verticalAlign=top;html=1;strokeWidth=4;shape=mxgraph.flowchart.on-page_reference;plain-purple;gradientColor=none;strokeColor=#000000;" vertex="1" parent="1">
          <mxGeometry x="30" y="230" width="30" height="30" as="geometry" />
        </mxCell>
        <mxCell id="gSucQQH5cgbJFUozR1KS-39" style="edgeStyle=orthogonalEdgeStyle;curved=1;rounded=0;html=1;entryX=0;entryY=0.5;entryPerimeter=0;endArrow=none;endFill=0;jettySize=auto;orthogonalLoop=1;strokeWidth=4;fontSize=15;entryDx=0;entryDy=0;" edge="1" parent="1" target="gSucQQH5cgbJFUozR1KS-25">
          <mxGeometry relative="1" as="geometry">
            <mxPoint x="-60" y="180" as="sourcePoint" />
            <mxPoint x="-5" y="260" as="targetPoint" />
          </mxGeometry>
        </mxCell>
        <mxCell id="gSucQQH5cgbJFUozR1KS-40" style="edgeStyle=orthogonalEdgeStyle;curved=1;rounded=0;html=1;entryX=0.5;entryY=1;entryPerimeter=0;endArrow=none;endFill=0;jettySize=auto;orthogonalLoop=1;strokeWidth=4;fontSize=15;entryDx=0;entryDy=0;exitX=1;exitY=0.5;exitDx=0;exitDy=0;exitPerimeter=0;" edge="1" parent="1" source="gSucQQH5cgbJFUozR1KS-25">
          <mxGeometry relative="1" as="geometry">
            <mxPoint x="80" y="246" as="sourcePoint" />
            <mxPoint x="140" y="195" as="targetPoint" />
          </mxGeometry>
        </mxCell>
        <mxCell id="gSucQQH5cgbJFUozR1KS-43" value="" style="verticalLabelPosition=bottom;verticalAlign=top;html=1;strokeWidth=4;shape=mxgraph.flowchart.on-page_reference;plain-purple;gradientColor=none;strokeColor=#000000;" vertex="1" parent="1">
          <mxGeometry x="450" y="165" width="30" height="30" as="geometry" />
        </mxCell>
        <mxCell id="gSucQQH5cgbJFUozR1KS-45" value="加载子应用JS资源" style="verticalLabelPosition=bottom;verticalAlign=top;html=1;strokeWidth=4;shape=mxgraph.flowchart.on-page_reference;plain-purple;gradientColor=none;strokeColor=#000000;" vertex="1" parent="1">
          <mxGeometry x="370" y="230" width="30" height="30" as="geometry" />
        </mxCell>
        <mxCell id="gSucQQH5cgbJFUozR1KS-46" style="edgeStyle=orthogonalEdgeStyle;curved=1;rounded=0;html=1;entryX=0.5;entryY=1;entryPerimeter=0;endArrow=none;endFill=0;jettySize=auto;orthogonalLoop=1;strokeWidth=4;fontSize=15;entryDx=0;entryDy=0;exitX=0;exitY=0.5;exitDx=0;exitDy=0;exitPerimeter=0;" edge="1" parent="1" source="gSucQQH5cgbJFUozR1KS-45" target="9hBKPDzoitwpIBdzFDQ7-25">
          <mxGeometry relative="1" as="geometry">
            <mxPoint x="240" y="256" as="sourcePoint" />
            <mxPoint x="300" y="205" as="targetPoint" />
          </mxGeometry>
        </mxCell>
        <mxCell id="gSucQQH5cgbJFUozR1KS-47" style="edgeStyle=orthogonalEdgeStyle;curved=1;rounded=0;html=1;entryX=0.5;entryY=1;entryPerimeter=0;endArrow=none;endFill=0;jettySize=auto;orthogonalLoop=1;strokeWidth=4;fontSize=15;entryDx=0;entryDy=0;" edge="1" parent="1">
          <mxGeometry relative="1" as="geometry">
            <mxPoint x="400" y="246" as="sourcePoint" />
            <mxPoint x="460" y="195" as="targetPoint" />
          </mxGeometry>
        </mxCell>
        <mxCell id="gSucQQH5cgbJFUozR1KS-50" value="" style="edgeStyle=orthogonalEdgeStyle;rounded=0;html=1;jettySize=auto;orthogonalLoop=1;plain-blue;endArrow=none;endFill=0;strokeWidth=4;strokeColor=#000000;" edge="1" parent="1">
          <mxGeometry x="304.5" y="180" as="geometry">
            <mxPoint x="480" y="179.5" as="sourcePoint" />
            <mxPoint x="770" y="180" as="targetPoint" />
          </mxGeometry>
        </mxCell>
        <mxCell id="gSucQQH5cgbJFUozR1KS-51" value="900ms" style="edgeLabel;html=1;align=center;verticalAlign=middle;resizable=0;points=[];" vertex="1" connectable="0" parent="gSucQQH5cgbJFUozR1KS-50">
          <mxGeometry relative="1" as="geometry">
            <mxPoint x="-6" as="offset" />
          </mxGeometry>
        </mxCell>
        <mxCell id="gSucQQH5cgbJFUozR1KS-52" style="edgeStyle=orthogonalEdgeStyle;curved=1;rounded=0;html=1;entryX=0.5;entryY=1;entryPerimeter=0;endArrow=none;endFill=0;jettySize=auto;orthogonalLoop=1;strokeWidth=4;fontSize=15;entryDx=0;entryDy=0;" edge="1" parent="1">
          <mxGeometry relative="1" as="geometry">
            <mxPoint x="530" y="240" as="sourcePoint" />
            <mxPoint x="460" y="190" as="targetPoint" />
          </mxGeometry>
        </mxCell>
        <mxCell id="gSucQQH5cgbJFUozR1KS-53" value="" style="verticalLabelPosition=bottom;verticalAlign=top;html=1;strokeWidth=4;shape=mxgraph.flowchart.on-page_reference;plain-purple;gradientColor=none;strokeColor=#000000;" vertex="1" parent="1">
          <mxGeometry x="770" y="165" width="30" height="30" as="geometry" />
        </mxCell>
        <mxCell id="gSucQQH5cgbJFUozR1KS-54" style="edgeStyle=orthogonalEdgeStyle;curved=1;rounded=0;html=1;entryX=0.5;entryY=1;entryPerimeter=0;endArrow=none;endFill=0;jettySize=auto;orthogonalLoop=1;strokeWidth=4;fontSize=15;entryDx=0;entryDy=0;exitX=1;exitY=0.5;exitDx=0;exitDy=0;exitPerimeter=0;" edge="1" parent="1" source="9hBKPDzoitwpIBdzFDQ7-34" target="gSucQQH5cgbJFUozR1KS-53">
          <mxGeometry relative="1" as="geometry">
            <mxPoint x="710" y="240" as="sourcePoint" />
            <mxPoint x="790" y="190" as="targetPoint" />
          </mxGeometry>
        </mxCell>
      </root>
    </mxGraphModel>
  </diagram>
</mxfile>
